<?xml version="1.0" encoding="UTF-8" standalone="no"?>
<!-- Created with Inkscape (http://www.inkscape.org/) -->

<svg
   xmlns:dc="http://purl.org/dc/elements/1.1/"
   xmlns:cc="http://creativecommons.org/ns#"
   xmlns:rdf="http://www.w3.org/1999/02/22-rdf-syntax-ns#"
   xmlns:svg="http://www.w3.org/2000/svg"
   xmlns="http://www.w3.org/2000/svg"
   xmlns:sodipodi="http://sodipodi.sourceforge.net/DTD/sodipodi-0.dtd"
   xmlns:inkscape="http://www.inkscape.org/namespaces/inkscape"
   width="589.40601mm"
   height="108.2348mm"
   viewBox="0 0 2088.4464 383.50915"
   id="svg17562"
   version="1.1"
   inkscape:version="0.91 r13725"
   sodipodi:docname="logo.svg"
   inkscape:export-filename="/home/simen/Dropbox/phd/uncertainpy/logo/logo.png"
   inkscape:export-xdpi="90"
   inkscape:export-ydpi="90">
  <defs
     id="defs17564" />
  <sodipodi:namedview
     id="base"
     pagecolor="#ffffff"
     bordercolor="#666666"
     borderopacity="1.0"
     inkscape:pageopacity="0.0"
     inkscape:pageshadow="2"
     inkscape:zoom="0.23392598"
     inkscape:cx="688.71553"
     inkscape:cy="651.73783"
     inkscape:document-units="px"
     inkscape:current-layer="layer1"
     showgrid="false"
     inkscape:window-width="1863"
     inkscape:window-height="1056"
     inkscape:window-x="1977"
     inkscape:window-y="24"
     inkscape:window-maximized="1"
     fit-margin-top="2"
     fit-margin-left="2"
     fit-margin-right="2"
     fit-margin-bottom="2"
     units="mm" />
  <metadata
     id="metadata17567">
    <rdf:RDF>
      <cc:Work
         rdf:about="">
        <dc:format>image/svg+xml</dc:format>
        <dc:type
           rdf:resource="http://purl.org/dc/dcmitype/StillImage" />
        <dc:title></dc:title>
      </cc:Work>
    </rdf:RDF>
  </metadata>
  <g
     inkscape:label="Layer 1"
     inkscape:groupmode="layer"
     id="layer1"
     transform="translate(451.09163,-129.71605)">
    <g
       id="g4140"
       transform="translate(-0.49482521,3.5751683)" />
    <path
       d="m -363.7836,-260.77338 c 29.09563,-5.86978 47.77288,-16.44566 73.16607,-20.54804 28.31538,-3.95181 50.15562,-12.03114 66.57352,-2.22643 15.848,9.46431 15.97248,9.95794 23.61961,19.81184 9.35481,12.05448 38.92309,53.75889 53.88866,75.21493 16.09701,20.93369 26.00966,22.92274 33.5546,1.02584 14.315647,-65.01901 32.503207,-88.34044 65.717967,-99.98126 51.5742776,-11.30601 73.372885,-14.82194 126.97786,-24.13271 21.922573,-2.97048 235.816283,-1.13024 266.097703,-1.6157 l -0.003,-12.41084 c -68.56369,-0.62085 -259.719234,0.65552 -353.0814634,3.24282 -14.9938996,-0.10877 -33.2970796,-0.56834 -43.0888696,-1.41896 -45.48459,-5.6451 -35.25167,-153.72367 -51.888157,-249.31566 -13.90955,-79.92321 -22.85799,-116.74058 -47.91861,-179.38326 -19.14827,-44.96778 -25.59867,-54.98399 -38.76723,-90.4769 -9.31902,-17.73759 -12.20069,-26.38903 -23.33851,-32.3395 -6.62046,31.81137 -2.15814,14.19572 -6.62046,31.81137 -7.93402,35.10985 -10.74771,65.55806 -14.74622,91.03007 -5.1181,36.75482 -10.78188,63.48169 -13.33182,101.8568 -3.72136,71.94001 -5.12422,149.01308 -9.61754,214.37027 -3.00593,43.57083 -9.46005,75.89144 -21.99718,96.33687 -15.55723,25.37095 -41.52252,40.33822 -89.03752,58.21743 z"
       style="opacity:1;fill:#8bb9ee;fill-opacity:1;fill-rule:nonzero;stroke:#247cde;stroke-width:16.15500069;stroke-linecap:butt;stroke-linejoin:round;stroke-miterlimit:10;stroke-dasharray:none;stroke-opacity:1"
       id="path346-9"
       inkscape:connector-curvature="0"
       sodipodi:nodetypes="ccssccccccccscccccccscc" />
    <text
       xml:space="preserve"
       style="font-style:normal;font-variant:normal;font-weight:300;font-stretch:normal;font-size:318.62442017px;line-height:125%;font-family:Raleway;-inkscape-font-specification:'Raleway, Light';text-align:start;letter-spacing:0px;word-spacing:0px;writing-mode:lr-tb;text-anchor:start;display:inline;opacity:1;fill:#000000;fill-opacity:1;stroke:none;stroke-width:1;stroke-linecap:butt;stroke-linejoin:miter;stroke-miterlimit:10;stroke-dasharray:none;stroke-opacity:1"
       x="-137.85841"
       y="425.13464"
       id="text4382-82-2-19-5-4-3"
       sodipodi:linespacing="125%"
       inkscape:export-xdpi="90"
       inkscape:export-ydpi="90"><tspan
         sodipodi:role="line"
         id="tspan4384-3-0-1-44-7-8"
         x="-137.85841"
         y="425.13464"
         style="font-style:normal;font-variant:normal;font-weight:300;font-stretch:normal;font-size:318.62442017px;line-height:125%;font-family:Raleway;-inkscape-font-specification:'Raleway, Light';text-align:start;writing-mode:lr-tb;text-anchor:start;fill:#000000;fill-opacity:1">Uncertainpy</tspan></text>
    <path
       inkscape:connector-curvature="0"
       id="path5673-6-0-8-3-0"
       style="display:inline;opacity:1;fill:none;stroke:#f9ba32;stroke-width:16.15544319;stroke-linecap:round;stroke-linejoin:round;stroke-miterlimit:10;stroke-dasharray:none;stroke-opacity:1"
       d="m -429.6574,495.72107 5.67597,-1.55958 6.00984,-1.90408 6.0098,-2.1578 6.34368,-2.5428 6.67754,-2.94492 7.34525,-3.50591 9.34857,-4.74814 31.71865,-16.35403 10.68401,-5.09046 17.02791,-7.78221 8.6809,-4.11719 5.34213,-2.78246 4.00648,-2.33959 3.33874,-2.22685 2.67107,-2.0623 2.33722,-2.1091 2.00336,-2.13402 1.66925,-2.10233 1.66925,-2.51408 1.33565,-2.41958 1.33541,-2.92175 1.33566,-3.62101 1.00157,-3.3534 1.00179,-4.11105 1.00157,-5.15815 1.00155,-6.64792 1.00154,-8.83624 0.66798,-7.64089 0.66767,-9.60402 0.66771,-12.26363 0.6677,-15.86359 0.66799,-20.63147 0.66767,-26.53845 1.00157,-50.79548 1.33566,-67.44324 0.6677,-20.24213 0.33384,-5.95108 0.33387,-3.63924 0.33384,-1.79514 0.33383,-0.38601 0.33387,0.66767 0.33411,1.45316 0.66771,4.54611 1.00154,9.39823 1.33566,15.25043 2.33695,30.07585 5.00829,65.15398 3.00491,35.93687 4.34031,48.58808 2.67107,31.22883 1.66952,22.25382 2.00336,30.53193 2.8598,23.88097 1.00191,10.52385 0.66771,4.78699 0.6677,3.32024 1.452,3.12785 1.43632,1.14913 3.86162,2.97319 4.98006,1.38486 6.16876,-0.11871 7.69347,-1.52178 10.56897,-2.41722 6.58944,-2.46656"
       sodipodi:nodetypes="ccccccccccccccccccccccccccccccccccccccccccccccccccccccccccccccccc"
       inkscape:export-xdpi="90"
       inkscape:export-ydpi="90" />
    <path
       inkscape:connector-curvature="0"
       id="path5683-3-6-1-5-5"
       style="display:inline;opacity:1;fill:none;stroke:#e50000;stroke-width:16.15500069;stroke-linecap:round;stroke-linejoin:round;stroke-miterlimit:10;stroke-dasharray:none;stroke-opacity:1"
       d="m -435.3334,497.98239 6.00984,-1.23747 6.34367,-1.54867 6.71334,-1.24777 5.60434,-1.31885 6.86238,-1.3229 7.78261,-1.72401 6.41296,-1.1086 14.37178,-2.28757 15.26352,-2.25912 7.06811,-1.05276 10.06047,-1.98062 8.49185,-1.54846 9.31278,-2.09149 10.86885,-1.99939 12.46696,-2.12757 28.73255,-5.76502 5.34213,-1.90328 4.00648,-1.6733 3.0049,-1.50337 2.33723,-1.40753 2.00336,-1.45713 1.66925,-1.46917 1.94663,-1.61424 1.42794,-1.58635 1.79788,-1.99945 1.56181,-1.92593 1.27894,-1.58363 1.00154,-1.46263 1.00191,-1.93112 1.00154,-2.50399 1.00157,-3.26137 1.00155,-6.71902 3.12489,-32.20066 0.29804,-5.48455 0.48287,-6.11334 0.29804,-8.17409 1.03762,-11.15991 0.6677,-14.66462 0.66771,-19.8481 0.6677,-26.84063 1.00182,-55.39948 1.33541,-77.48051 0.66768,-21.07626 0.33387,-5.46978 0.33411,-2.99996 0.33384,-1.21329 0.33386,0.0488 0.33384,0.94829 0.66771,3.72623 0.6677,5.36324 1.00182,10.01474 1.66925,19.79921 3.33874,43.80826 4.00675,51.37459 3.33874,39.67757 5.00802,58.94797 1.66952,23.29506 1.33541,21.91111 4.51547,40.23769 0.92914,6.71826 0.92912,3.31148 1.19058,2.23813 1.19056,1.76804 2.10584,1.92067 3.00333,1.77363 4.46947,0.53219 4.84411,-0.28067"
       sodipodi:nodetypes="cccccccccccccccccccccccccccccccccccccccccccccccccccccccccccccccccccc"
       inkscape:export-xdpi="90"
       inkscape:export-ydpi="90" />
    <path
       inkscape:connector-curvature="0"
       id="path5693-6-4-8-3-6"
       style="display:inline;opacity:1;fill:none;stroke:#335366;stroke-width:16.79978561;stroke-linecap:round;stroke-linejoin:round;stroke-miterlimit:10;stroke-dasharray:none;stroke-opacity:1"
       d="m -435.49039,497.70451 5.11179,-1.49492 7.88202,-2.83303 9.00088,-3.24493 6.13806,-2.6533 6.14459,-2.4076 6.82826,-2.81727 11.40833,-5.55257 5.48523,-2.86585 4.94088,-3.16181 5.12577,-3.10947 3.06719,-2.4185 2.76048,-2.7152 2.37146,-3.19265 1.06506,-1.50313 1.30954,-1.84821 1.96363,-4.09995 3.23469,-7.03882 5.92828,-16.76352 2.28441,-7.74558 1.32963,-5.02433 1.13174,-3.98656 1.07658,-3.64569 1.05412,-4.56516 1.18481,-4.97504 1.07658,-5.79268 1.0622,-6.23157 1.0622,-8.11485 1.19292,-10.74136 0.71503,-10.72015 0.71475,-12.47412 1.0847,-16.55613 1.08469,-20.40379 1.44625,-32.7842 2.16936,-50.93861 1.08469,-18.71774 0.72311,-8.2649 0.72314,-4.81212 0.36155,-1.20069 0.36156,-0.47135 0.36158,0.1942 0.36156,0.79391 0.72311,3.12926 0.72314,4.78816 1.08469,9.40963 1.44625,15.10804 3.61536,41.81365 3.25405,36.24231 2.8925,29.47775 3.6156,33.91246 6.50789,60.49805 2.53091,22.70612 1.44625,10.88181 1.0847,6.69801 1.08469,5.3889 1.0847,4.1855 1.08466,3.16543 1.08469,2.34623 1.0847,1.70874 0.94586,0.98946 1.03866,0.84848 1.03842,0.70323 1.16886,0.654 1.12261,0.5624 1.2533,0.64825 1.79973,0.72274 1.2831,0.58898 2.28337,0.86563 1.73171,0.58034 1.86742,0.46665 3.24883,0.67843 2.41669,0.42292 2.8708,0.51099 2.50086,0.50638 2.35423,0.33771 2.53094,0.48788 2.8925,0.29041 3.25405,0.0884 3.97691,-0.12623 5.06198,-0.40845 6.50813,-0.78666 7.95411,-1.21295 10.12374,-1.79161 13.7391,-2.68913 27.4782,-5.69198 22.41632,-4.51713 16.99318,-3.18002 13.71688,-2.92732 16.13121,-2.95226 13.677921,-2.39076 15.146385,-1.70652 13.739131,-1.68652 13.216219,-1.31491 14.000541,-1.06973 14.523667,-0.43198 282.356696,-0.60704"
       sodipodi:nodetypes="cccccccccccccccccccccccccccccccccccccccccccccccccccccccccccccccccccccccccccccccccccccccccccccccc"
       inkscape:export-xdpi="90"
       inkscape:export-ydpi="90" />
  </g>
</svg>
